PathFileType	4	(X/Y/Z)	C:\Users\dbl\Desktop\LZH\BX\Trimmed_bx_y_5_1801.trc
DataRate	CameraRate	NumFrames	NumMarkers	Units	OrigDataRate	OrigDataStartFrame	OrigNumFrames
50.00	50.00	       4	43	mm	50.00	83	       330
Frame#	Time	Top.Head			R.Acromium			L.Acromium			Sternum			R.ASIS			L.ASIS			V.Sacral			R.Thigh.Upper			R.Thigh.Front			R.Thigh.Rear			R.Knee.Lat			R.Knee.Med			R.Shank.Upper			R.Shank.Front			R.Shank.Rear			R.Ankle.Lat			R.Midfoot.Lat			R.Toe.Lat			R.Toe.Tip			R.Toe.Med			R.Ankle.Med			R.Midfoot.Sup			R.Heel			L.Thigh.Upper			L.Thigh.Front			L.Thigh.Rear			L.Knee.Lat			L.Knee.Med			L.Shank.Upper			L.Shank.Front			L.Shank.Rear			L.Ankle.Lat			L.Midfoot.Lat			L.Toe.Lat			L.Toe.Tip			L.Toe.Med			L.Ankle.Med			L.Midfoot.Sup			L.Heel			origin1 front left			origin2 front right			origin 3 back right			origin 4 back leftt			
		X1	Y1	Z1	X2	Y2	Z2	X3	Y3	Z3	X4	Y4	Z4	X5	Y5	Z5	X6	Y6	Z6	X7	Y7	Z7	X8	Y8	Z8	X9	Y9	Z9	X10	Y10	Z10	X11	Y11	Z11	X12	Y12	Z12	X13	Y13	Z13	X14	Y14	Z14	X15	Y15	Z15	X16	Y16	Z16	X17	Y17	Z17	X18	Y18	Z18	X19	Y19	Z19	X20	Y20	Z20	X21	Y21	Z21	X22	Y22	Z22	X23	Y23	Z23	X24	Y24	Z24	X25	Y25	Z25	X26	Y26	Z26	X27	Y27	Z27	X28	Y28	Z28	X29	Y29	Z29	X30	Y30	Z30	X31	Y31	Z31	X32	Y32	Z32	X33	Y33	Z33	X34	Y34	Z34	X35	Y35	Z35	X36	Y36	Z36	X37	Y37	Z37	X38	Y38	Z38	X39	Y39	Z39	X40	Y40	Z40	X41	Y41	Z41	X42	Y42	Z42	X43	Y43	Z43	

83	1.640	-663.41461	283.19702	1839.74304	-636.63129	74.16261	1530.70923	-646.33624	464.25876	1511.52075	-538.68427	276.60281	1397.98499	-536.05756	149.12709	1057.72974	-550.69635	415.42453	1074.32166	-740.99512	261.93530	1015.54846	-562.88300	99.59832	890.45416	-520.95642	162.80327	843.26135	-614.71643	95.30436	746.33698	-642.04419	128.81755	603.67529	-629.24475	237.24654	561.89081	-680.99982	127.58717	540.76282	-597.20270	179.25064	543.87543	-720.47534	131.54507	474.58984	-685.74341	149.21660	214.27333	-613.79065	83.12206	167.61595	-568.94019	58.58188	164.78360	-491.37213	94.12169	162.19518	-529.81738	149.17699	165.34033	-630.45593	222.97533	218.62799	-589.95709	193.77658	168.92946	-715.11993	216.85779	169.39226	-582.56866	447.15961	875.64301	-515.08057	376.36298	836.39771	-606.80267	442.42773	748.98322	-643.89191	418.44940	625.00305	-617.97577	311.85355	577.32880	-654.24127	413.04782	562.61334	-604.96307	369.61221	539.95923	-707.66583	420.74539	512.66675	-678.72705	415.95029	212.61317	-582.53833	468.05911	165.76047	-542.27106	477.43640	159.49658	-481.52347	428.67703	163.93405	-523.85504	386.86066	177.68991	-642.90820	326.98196	207.66081	-594.02887	347.00137	168.86440	-732.42059	345.68973	164.27322	-443.40109	449.10883	147.08873	-450.37274	75.15728	144.87204	-806.11102	82.55155	142.72971	-799.88568	457.77432	145.30026	
84	1.660	-663.11658	283.22449	1839.77356	-636.45886	74.13686	1530.74817	-646.12079	464.25784	1511.49915	-538.50104	276.57523	1398.04626	-535.91302	149.16667	1057.72607	-550.57428	415.41623	1074.30103	-740.85889	261.96384	1015.55096	-562.77661	99.55817	890.48956	-520.87170	162.83833	843.11444	-614.69196	95.25941	746.37646	-642.02026	128.82069	603.66742	-629.24310	237.22594	561.91479	-680.93921	127.61684	540.72754	-597.16913	179.25932	543.83972	-720.46368	131.51164	474.60168	-685.73389	149.20822	214.28468	-613.79938	83.10649	167.60051	-568.96381	58.61489	164.77386	-491.37732	94.12872	162.18584	-529.75244	149.13785	165.45990	-630.47791	222.95123	218.62373	-589.90820	193.75435	168.91394	-715.10852	216.89027	169.38126	-582.46344	447.06879	875.58276	-514.96033	376.34573	836.39099	-606.78784	442.37527	748.91321	-643.83655	418.41357	624.95721	-617.97766	311.86658	577.27789	-654.20667	413.03033	562.59399	-604.95929	369.62756	539.91138	-707.61865	420.76569	512.64343	-678.74786	415.91830	212.60515	-582.53131	468.04715	165.74823	-542.28204	477.43906	159.49629	-481.54337	428.66531	163.87695	-523.86981	386.88766	177.68015	-642.87634	326.96234	207.65863	-594.03223	347.00076	168.84648	-732.41638	345.71671	164.29085	-443.40765	449.14496	147.09247	-450.35394	75.12981	144.85170	-806.05066	82.54482	142.74287	-799.88605	457.74295	145.29808	
85	1.680	-662.76514	283.29782	1839.77979	-636.29633	74.12807	1530.70483	-645.94672	464.31146	1511.47766	-538.30603	276.55515	1398.08752	-535.75714	149.25360	1057.71777	-550.37793	415.40741	1074.27173	-740.71759	261.96796	1015.59082	-562.71289	99.56202	890.46039	-520.76611	162.84256	843.03284	-614.63751	95.26234	746.36731	-641.96906	128.83885	603.64032	-629.22961	237.19234	561.93005	-680.88965	127.63593	540.70642	-597.11823	179.24480	543.81183	-720.44165	131.48315	474.60989	-685.74304	149.21741	214.29091	-613.81171	83.11714	167.57024	-568.97974	58.64081	164.76103	-491.37311	94.12244	162.19112	-529.69531	149.09087	165.56444	-630.50092	222.92516	218.61739	-589.87244	193.74547	168.89136	-715.10931	216.88359	169.37837	-582.37378	446.97330	875.50427	-514.83600	376.35019	836.40857	-606.82489	442.25192	748.78967	-643.75720	418.37598	624.90942	-617.96918	311.90366	577.24152	-654.17047	413.01590	562.60059	-604.93243	369.65662	539.86841	-707.58423	420.76514	512.64941	-678.74890	415.91144	212.61926	-582.51855	468.02853	165.74127	-542.29346	477.44540	159.50900	-481.53940	428.67050	163.86194	-523.88965	386.90808	177.67712	-642.83881	326.93912	207.65631	-594.04626	346.99838	168.82829	-732.40985	345.74200	164.28365	-443.42764	449.17773	147.09044	-450.32999	75.10754	144.85091	-806.06244	82.55742	142.72899	-799.87445	457.72067	145.27477	
86	1.700	-662.36139	283.36972	1839.74792	-636.12567	74.10287	1530.61731	-645.79626	464.39233	1511.44019	-538.10754	276.54993	1398.08875	-535.60254	149.36740	1057.69678	-550.12097	415.38269	1074.24475	-740.58820	261.95981	1015.64044	-562.67657	99.59866	890.40375	-520.62128	162.79143	843.04645	-614.55408	95.31680	746.30951	-641.88245	128.87271	603.60522	-629.20837	237.16397	561.93207	-680.84357	127.65108	540.70020	-597.04651	179.21063	543.79797	-720.40369	131.46504	474.61374	-685.75952	149.23427	214.29106	-613.81775	83.14420	167.54353	-568.98096	58.64152	164.76299	-491.36365	94.11208	162.21503	-529.69324	149.06319	165.58458	-630.50677	222.91512	218.60794	-589.86407	193.74937	168.88789	-715.10437	216.85127	169.38269	-582.29376	446.88678	875.42566	-514.71783	376.35995	836.43774	-606.90613	442.06879	748.63104	-643.66113	418.36975	624.88959	-617.97180	311.92896	577.22528	-654.12671	413.01968	562.63403	-604.89575	369.68958	539.82849	-707.54480	420.74921	512.69312	-678.73285	415.92899	212.65395	-582.50311	468.01810	165.73926	-542.29596	477.45129	159.52496	-481.53091	428.67773	163.86636	-523.89691	386.89255	177.68227	-642.81274	326.92462	207.65123	-594.05695	347.00345	168.83092	-732.40601	345.74463	164.25604	-443.44852	449.17999	147.08325	-450.31226	75.11034	144.87515	-806.14349	82.57773	142.68636	-799.85974	457.70840	145.23543	
